<svg width="60" height="80" viewBox="0 0 60 80" fill="none" xmlns="http://www.w3.org/2000/svg">
<rect width="60" height="60" rx="12" fill="#1F7FEF"/>
<path d="M36.1573 36.319C34.809 35.3423 35.1303 36.4627 35.1303 36.4627C35.2518 37.5144 35.4296 40.3666 31.3188 40.7355C27.2079 41.1043 24.3382 36.0728 31.1055 34.1057C37.1614 32.3483 37.2484 30.3913 37.1977 30.0005C37.2465 29.6096 37.1614 27.6563 31.1055 25.8952C24.3392 23.9272 27.2079 18.8929 31.3197 19.2654C35.4315 19.638 35.2527 22.4865 35.1313 23.5382C35.1313 23.5382 34.81 24.6586 36.1583 23.6819C36.1583 23.6819 38 22.3291 38 20.9359C38 19.5428 38 17 30.0355 17C22.071 17 21.001 20.243 21.001 21.443C21.001 22.4059 22.0346 25.3616 31.1772 28.2165H31.1686C31.4597 28.3168 31.7334 28.4584 31.9805 28.6366C32.997 29.3753 33.0276 30.8673 31.5932 31.6069C31.5196 31.6444 31.1648 31.7817 31.0797 31.8082H31.0902C22.026 34.643 21 37.2911 21 38.4499C21 39.5043 22.07 43 30.0345 43C37.999 43 37.999 40.4609 37.999 39.0641C37.999 37.6673 36.1573 36.319 36.1573 36.319Z" fill="white"/>
<path d="M25.7237 27.9943C26.0957 27.0662 24.7675 27.5367 24.7675 27.5367C24.7675 27.5367 22.2746 28.4309 22.2746 30.0749C22.2765 31.7078 24.7694 32.614 24.7694 32.614C24.7694 32.614 26.2315 33.0296 25.7256 32.1563C25.3575 31.5229 24.9731 30.9801 24.8583 30.5527C24.7741 30.2389 24.7741 29.9099 24.8583 29.5961C24.9712 29.1705 25.4531 28.6707 25.7237 27.9943Z" fill="white"/>
<path d="M16.6338 71.7886C16.3333 71.467 15.9461 71.3062 15.4722 71.3062C14.9982 71.3062 14.6047 71.4691 14.2915 71.7949C13.9784 72.1165 13.8049 72.5334 13.771 73.0454H17.1099C17.0929 72.5291 16.9342 72.1102 16.6338 71.7886ZM17.1035 75.0386H18.4048C18.3075 75.6522 17.9943 76.1536 17.4653 76.543C16.9364 76.9323 16.291 77.127 15.5293 77.127C14.5518 77.127 13.7816 76.8201 13.2188 76.2065C12.6602 75.5887 12.3809 74.7508 12.3809 73.6929C12.3809 72.6434 12.6602 71.7992 13.2188 71.1602C13.7816 70.5212 14.5327 70.2017 15.4722 70.2017C16.3947 70.2017 17.1268 70.5042 17.6685 71.1094C18.2101 71.7103 18.481 72.5186 18.481 73.5342V74.0039H13.7646V74.0864C13.7646 74.6704 13.9276 75.138 14.2534 75.4893C14.5793 75.8405 15.0151 76.0161 15.561 76.0161C15.9461 76.0161 16.2762 75.9272 16.5513 75.7495C16.8263 75.5718 17.0104 75.3348 17.1035 75.0386ZM23.5736 73.9023H19.4095V72.6646H23.5736V73.9023ZM34.2267 77H32.9254V70.2588H32.881L30.1198 76.9302H29.0661L26.2985 70.2588H26.254V77H24.9591V67.8403H26.6032L29.5675 75.0703H29.6183L32.5763 67.8403H34.2267V77ZM39.5097 71.7886C39.2093 71.467 38.8221 71.3062 38.3481 71.3062C37.8741 71.3062 37.4806 71.4691 37.1674 71.7949C36.8543 72.1165 36.6808 72.5334 36.6469 73.0454H39.9858C39.9689 72.5291 39.8102 72.1102 39.5097 71.7886ZM39.9795 75.0386H41.2807C41.1834 75.6522 40.8702 76.1536 40.3413 76.543C39.8123 76.9323 39.167 77.127 38.4052 77.127C37.4277 77.127 36.6575 76.8201 36.0947 76.2065C35.5361 75.5887 35.2568 74.7508 35.2568 73.6929C35.2568 72.6434 35.5361 71.7992 36.0947 71.1602C36.6575 70.5212 37.4087 70.2017 38.3481 70.2017C39.2706 70.2017 40.0027 70.5042 40.5444 71.1094C41.0861 71.7103 41.3569 72.5186 41.3569 73.5342V74.0039H36.6406V74.0864C36.6406 74.6704 36.8035 75.138 37.1294 75.4893C37.4552 75.8405 37.8911 76.0161 38.437 76.0161C38.8221 76.0161 39.1521 75.9272 39.4272 75.7495C39.7023 75.5718 39.8864 75.3348 39.9795 75.0386ZM44.7356 77.1143C43.8893 77.1143 43.2101 76.8011 42.698 76.1748C42.186 75.5485 41.93 74.7106 41.93 73.6611C41.93 72.6117 42.1839 71.7759 42.6917 71.1538C43.2037 70.5275 43.8808 70.2144 44.7229 70.2144C45.1927 70.2144 45.6116 70.3244 45.9798 70.5444C46.3479 70.7603 46.6272 71.0565 46.8177 71.4331H46.843V67.8403H48.2205V77H46.8875V75.8638H46.8621C46.6632 76.2531 46.3776 76.5599 46.0052 76.7842C45.637 77.0042 45.2138 77.1143 44.7356 77.1143ZM45.0974 71.3696C44.5558 71.3696 44.1262 71.577 43.8089 71.9917C43.4915 72.4022 43.3328 72.9587 43.3328 73.6611C43.3328 74.3678 43.4915 74.9264 43.8089 75.3369C44.1262 75.7474 44.5558 75.9526 45.0974 75.9526C45.6264 75.9526 46.0517 75.7453 46.3733 75.3306C46.6949 74.9116 46.8557 74.3551 46.8557 73.6611C46.8557 72.9714 46.6949 72.417 46.3733 71.998C46.0517 71.5791 45.6264 71.3696 45.0974 71.3696Z" fill="white"/>
</svg>
